<?xml version="1.0" encoding="utf-8"?>
<!-- Generator: Adobe Illustrator 16.0.0, SVG Export Plug-In . SVG Version: 6.00 Build 0)  -->
<!DOCTYPE svg PUBLIC "-//W3C//DTD SVG 1.1//EN" "http://www.w3.org/Graphics/SVG/1.1/DTD/svg11.dtd">
<svg version="1.1" id="Layer_1" xmlns="http://www.w3.org/2000/svg" xmlns:xlink="http://www.w3.org/1999/xlink" x="0px" y="0px"
	 width="200px" height="100px" viewBox="0 0 200 100" enable-background="new 0 0 200 100" xml:space="preserve">
<g id="mreza">
	<g>
		<path fill="#184998" stroke="#184998" stroke-width="0.2" stroke-miterlimit="10" d="M36.167,54.875l15.856-26.122l0.034,0.067
			l12.83,26.131l-0.064,0.006L36.167,54.875z M52.016,28.925L36.315,54.791l28.444,0.086L52.016,28.925z"/>
	</g>
	<g>
		<path fill="#184998" stroke="#184998" stroke-width="0.2" stroke-miterlimit="10" d="M66.267,53.673l-0.033-0.066L52.951,26.548
			l0.076,0.009l28.478,3.082l-0.042,0.058L66.267,53.673z M53.094,26.649l13.185,26.858l15.07-23.8L53.094,26.649z"/>
	</g>
	<g>
		<path fill="#6ECEF5" d="M81.495,29.723l-0.07-0.008l-28.523-3.089l0.096-0.062l21.285-14.055l0.022,0.048L81.495,29.723z
			 M53.145,26.57l28.217,3.054l-7.119-16.988L53.145,26.57z"/>
	</g>
	<g>
		<path fill="#184998" stroke="#184998" stroke-width="0.2" stroke-miterlimit="10" d="M53.007,26.662l-0.023-0.043l-6.165-12.15
			l0.065-0.005l27.534-1.945L53.007,26.662z M46.954,14.542l6.087,11.995l21.065-13.911L46.954,14.542z"/>
	</g>
	<g>
		<path fill="#184998" stroke="#184998" stroke-width="0.2" stroke-miterlimit="10" d="M46.89,14.546l-0.012-0.083l18.728-3.47
			l0.008,0l8.991,1.596L46.89,14.546z M65.605,11.077l-17.983,3.334l26.303-1.856L65.605,11.077z"/>
	</g>
	<g>
		<path fill="#184998" stroke="#184998" stroke-width="0.2" stroke-miterlimit="10" d="M95.41,30.588l-14.015-0.881l-0.014-0.024
			l-7.226-17.259L95.41,30.588z M81.454,29.627l13.709,0.861L74.37,12.718L81.454,29.627z"/>
	</g>
	<g>
		<path fill="#184998" stroke="#184998" stroke-width="0.2" stroke-miterlimit="10" d="M95.383,30.72L74.062,12.454l14.214,5.198
			l0.005,0.016L95.383,30.72z M74.467,12.691l20.621,17.664L88.214,17.72L74.467,12.691z"/>
	</g>
	<g>
		<path fill="#184998" stroke="#184998" stroke-width="0.2" stroke-miterlimit="10" d="M95.265,30.591l-7.192-13.129l11.844,11.46
			L95.265,30.591z M88.417,17.914l6.89,12.574l4.455-1.598L88.417,17.914z"/>
	</g>
	<g>
		<path fill="#055593" stroke="#055593" stroke-width="0.3" stroke-miterlimit="10" d="M103.617,34.777l-8.438-4.246l4.676-1.679
			L103.617,34.777z M95.39,30.544l7.989,4.019l-3.559-5.604L95.39,30.544z"/>
	</g>
	<g>
		<path fill="#184998" stroke="#184998" stroke-width="0.2" stroke-miterlimit="10" d="M97.403,54.021l-0.083-0.004l-31.124-0.393
			l0.042-0.063L81.43,29.597l0.037,0.054L97.403,54.021z M66.353,53.553l30.888,0.375l-15.815-24.18L66.353,53.553z"/>
	</g>
	<g>
		<path fill="#184998" stroke="#184998" stroke-width="0.2" stroke-miterlimit="10" d="M77.252,80.998l-0.031-0.064L64.755,54.871
			l30.141,0.386l-0.04,0.062L77.252,80.998z M64.89,54.961l12.377,25.875l17.478-25.502L64.89,54.961z"/>
	</g>
	<g>
		<path fill="#184998" stroke="#184998" stroke-width="0.2" stroke-miterlimit="10" d="M51.26,77.28l-0.042-0.054L36.167,54.795
			l0.07-0.002l28.657,0.108l-0.035,0.063L51.26,77.28z M36.315,54.869l14.933,22.254l13.507-22.136L36.315,54.869z"/>
	</g>
	<g>
		<path fill="#184998" stroke="#184998" stroke-width="0.2" stroke-miterlimit="10" d="M34.092,78.176l0.003-0.047l2.116-23.418
			l0.063,0.098l15.054,22.434l-0.072,0.002L34.092,78.176z M36.271,54.951l-2.088,23.138l16.996-0.923L36.271,54.951z"/>
	</g>
	<g>
		<path fill="#6ECEF5" d="M57.459,91.873L33.999,78.1l0.136-0.009l17.146-0.931l0.01,0.027L57.459,91.873z M34.273,78.165
			l23.013,13.514l-6.058-14.431L34.273,78.165z"/>
	</g>
	<g>
		<path fill="#184998" stroke="#184998" stroke-width="0.2" stroke-miterlimit="10" d="M57.688,91.915l-13.159-4.011l-10.688-9.996
			L57.688,91.915z M44.579,87.842l12.477,3.797L34.433,78.351L44.579,87.842z"/>
	</g>
	<g>
		<path fill="#065593" stroke="#055593" stroke-width="0.2" stroke-miterlimit="10" d="M34.308,78.4l-5.092-6.107l-5.925-17.448
			l0.078-0.028L34.308,78.4z M29.293,72.265l4.674,5.601L23.62,55.551L29.293,72.265z"/>
	</g>
	<g>
		<path fill="#184998" stroke="#184998" stroke-width="0.2" stroke-miterlimit="10" d="M57.353,91.836l-6.165-14.684l0.072,0.012
			l26.125,3.728l-0.106,0.058L57.353,91.836z M51.323,77.252l6.07,14.469l19.741-10.783L51.323,77.252z"/>
	</g>
	<g>
		<path fill="#184998" stroke="#184998" stroke-width="0.2" stroke-miterlimit="10" d="M57.189,91.832l0.164-0.092l19.922-10.879
			l0.022,0.036l4.717,8.963l-0.062,0.009L57.189,91.832z M77.242,80.972L57.559,91.723l24.325-1.93L77.242,80.972z"/>
	</g>
	<g>
		<path fill="#2F3030" stroke="#4A494A" stroke-width="0.2" stroke-miterlimit="10" d="M81.939,89.895l-0.024-0.049L77.2,80.938
			l0.047-0.016l20.153-5.47l-0.122,0.108L81.939,89.895z M77.319,80.987l4.64,8.775l15.145-14.147L77.319,80.987z"/>
	</g>
	<g>
		<path fill="#184998" stroke="#184998" stroke-width="0.2" stroke-miterlimit="10" d="M34.164,78.287L23.267,54.793h13.016
			l-0.002,0.043L34.164,78.287z M23.394,54.873l10.715,23.102l2.087-23.102H23.394z"/>
	</g>
	<g>
		<path fill="#184998" stroke="#184998" stroke-width="0.2" stroke-miterlimit="10" d="M30.509,34.671l0.089-0.103L46.1,17.081
			l0.028,0.054l5.947,11.731L30.509,34.671z M46.079,17.226L30.751,34.518l21.208-5.707L46.079,17.226z"/>
	</g>
	<g>
		<path fill="#6ECEF5" d="M36.295,54.873H23.273l0.018-0.054l7.345-20.36L36.295,54.873z M23.387,54.793h12.798l-5.558-20.064
			L23.387,54.793z"/>
	</g>
	<g>
		<path fill="#184998" stroke="#184998" stroke-width="0.2" stroke-miterlimit="10" d="M23.369,54.845l-0.078-0.023l4.305-17.091
			l0.008-0.008l3.133-3.301L23.369,54.845z M27.671,37.77l-4.097,16.263l6.951-19.269L27.671,37.77z"/>
	</g>
	<g>
		<path fill="#787878" d="M27.48,37.974l2.275-4.646L46.06,17.126l0.059,0.052L30.662,34.621L27.48,37.974z M29.821,33.38
			l-2.03,4.146l2.807-2.96L45.2,18.096L29.821,33.38z"/>
	</g>
	<g>
		<path fill="#6ECEF5" d="M36.228,54.936L36.2,54.843l-5.621-20.277l0.04-0.011l21.489-5.781l-0.054,0.083L36.228,54.936z
			 M30.683,34.621l5.57,20.109l15.68-25.827L30.683,34.621z"/>
	</g>
	<g>
		<path fill="#184998" stroke="#184998" stroke-width="0.2" stroke-miterlimit="10" d="M77.329,80.968l-0.077-0.015L51.19,77.232
			l0.026-0.048l13.617-22.329l0.031,0.072L77.329,80.968z M51.319,77.172l25.87,3.695l-12.361-25.83L51.319,77.172z"/>
	</g>
	<g>
		<path fill="#555656" d="M77.162,80.982l0.065-0.091l17.624-25.614l0.009,0.107l2.436,20.176l-0.033,0.012L77.162,80.982z
			 M94.793,55.497L77.357,80.848l19.849-5.344L94.793,55.497z"/>
	</g>
	<g>
		<path fill="#184998" stroke="#184998" stroke-width="0.2" stroke-miterlimit="10" d="M97.231,75.693l-2.457-20.445l10.824,0.285
			l0.012,0.054L97.231,75.693z M94.868,55.334l2.406,20.037l8.237-19.758L94.868,55.334z"/>
	</g>
	<g>
		<path fill="#184998" stroke="#184998" stroke-width="0.2" stroke-miterlimit="10" d="M97.381,54.247l-0.096-0.146L81.35,29.627
			l13.973,0.872l0.004,0.035L97.381,54.247z M81.509,29.719l15.756,24.19l-2.02-23.332L81.509,29.719z"/>
	</g>
	<g>
		<path fill="#184998" stroke="#184998" stroke-width="0.2" stroke-miterlimit="10" d="M108.453,54.313l-11.17-0.293l-2.055-23.675
			L108.453,54.313z M97.362,53.933l11.017,0.294L95.347,30.734L97.362,53.933z"/>
	</g>
	<g>
		<path fill="#184998" stroke="#184998" stroke-width="0.2" stroke-miterlimit="10" d="M108.49,54.283l-0.078,0.006L95.183,30.438
			l8.35,4.204l0.006,0.017L108.49,54.283z M95.387,30.637l12.939,23.324l-4.865-19.263L95.387,30.637z"/>
	</g>
	<g>
		<g opacity="0.7">
			
				<rect x="43.918" y="14.425" transform="matrix(0.9677 0.252 -0.252 0.9677 8.0722 -10.2241)" fill="#555656" stroke="#4A494A" stroke-width="0.3" stroke-miterlimit="10" width="0.085" height="23.97"/>
			<polygon fill="#555656" stroke="#4A494A" stroke-width="0.3" stroke-miterlimit="10" points="40.846,38.006 40.793,37.938 
				74.528,12.779 74.583,12.846 			"/>
			<polygon fill="#555656" stroke="#4A494A" stroke-width="0.3" stroke-miterlimit="10" points="54.049,46.855 40.793,38.008 
				40.846,37.938 54.098,46.787 			"/>
			<polygon fill="#555656" stroke="#4A494A" stroke-width="0.3" stroke-miterlimit="10" points="54.098,46.855 54.049,46.787 
				71.289,35.214 71.34,35.285 			"/>
			
				<rect x="72.893" y="12.695" transform="matrix(0.9945 0.1047 -0.1047 0.9945 2.9163 -7.5031)" fill="#555656" stroke="#4A494A" stroke-width="0.3" stroke-miterlimit="10" width="0.084" height="22.671"/>
			
				<rect x="43.373" y="25.005" transform="matrix(0.7646 0.6445 -0.6445 0.7646 30.076 -32.2619)" fill="#555656" stroke="#4A494A" stroke-width="0.3" stroke-miterlimit="10" width="31.668" height="0.081"/>
			<polygon fill="#555656" stroke="#4A494A" stroke-width="0.3" stroke-miterlimit="10" points="80.347,57.594 71.272,35.262 
				71.354,35.236 80.427,57.563 			"/>
			
				<rect x="53.016" y="52.16" transform="matrix(0.9257 0.3784 -0.3784 0.9257 24.75 -21.5568)" fill="#555656" stroke="#4A494A" stroke-width="0.3" stroke-miterlimit="10" width="28.426" height="0.083"/>
			<polygon fill="#555656" stroke="#4A494A" stroke-width="0.3" stroke-miterlimit="10" points="51.584,64.135 51.498,64.124 
				54.03,46.818 54.113,46.827 			"/>
			
				<rect x="65.922" y="46.063" transform="matrix(0.2144 0.9767 -0.9767 0.2144 111.2591 -16.6218)" fill="#555656" stroke="#4A494A" stroke-width="0.3" stroke-miterlimit="10" width="0.082" height="29.584"/>
			
				<rect x="32.146" y="34.174" transform="matrix(0.6783 0.7348 -0.7348 0.6783 44.0658 -8.8933)" fill="#555656" stroke="#4A494A" stroke-width="0.3" stroke-miterlimit="10" width="0.086" height="23.404"/>
			
				<rect x="32.045" y="51.01" transform="matrix(0.3792 0.9253 -0.9253 0.3792 75.91 -11.0373)" fill="#555656" stroke="#4A494A" stroke-width="0.3" stroke-miterlimit="10" width="28.271" height="0.084"/>
			
				<rect x="71.093" y="37.361" transform="matrix(0.9791 0.2033 -0.2033 0.9791 9.3114 -15.8282)" fill="#555656" stroke="#4A494A" stroke-width="0.3" stroke-miterlimit="10" width="21.193" height="0.084"/>
			<polygon fill="#555656" stroke="#4A494A" stroke-width="0.3" stroke-miterlimit="10" points="80.424,57.6 80.349,57.554 
				92.031,39.538 92.104,39.58 			"/>
			<polygon fill="#555656" stroke="#4A494A" stroke-width="0.3" stroke-miterlimit="10" points="92.032,39.58 74.52,12.836 
				74.591,12.792 92.104,39.538 			"/>
			
				<rect x="93.766" y="30.466" transform="matrix(0.9265 0.3762 -0.3762 0.9265 20.1277 -32.7089)" fill="#555656" stroke="#4A494A" stroke-width="0.3" stroke-miterlimit="10" width="0.087" height="9.426"/>
			<polygon fill="#555656" stroke="#4A494A" stroke-width="0.3" stroke-miterlimit="10" points="108.619,54.6 92.04,39.588 
				92.099,39.529 108.678,54.541 			"/>
			
				<rect x="94.476" y="41.863" transform="matrix(0.1226 0.9925 -0.9925 0.1226 138.5818 -44.6057)" fill="#555656" stroke="#4A494A" stroke-width="0.3" stroke-miterlimit="10" width="0.084" height="28.422"/>
			
				<rect x="73.802" y="64.513" transform="matrix(0.0582 0.9983 -0.9983 0.0582 140.539 -19.8561)" fill="#555656" stroke="#4A494A" stroke-width="0.3" stroke-miterlimit="10" width="13.983" height="0.086"/>
			
				<rect x="79.029" y="73.908" transform="matrix(0.9827 0.1853 -0.1853 0.9827 15.2416 -15.1488)" fill="#555656" stroke="#4A494A" stroke-width="0.3" stroke-miterlimit="10" width="19.243" height="0.087"/>
			<polygon fill="#555656" stroke="#4A494A" stroke-width="0.3" stroke-miterlimit="10" points="81.224,71.57 81.176,71.503 
				108.623,54.535 108.67,54.605 			"/>
			
				<rect x="71.578" y="80.895" transform="matrix(0.1369 0.9906 -0.9906 0.1369 149.8327 -10.0952)" fill="#555656" stroke="#4A494A" stroke-width="0.3" stroke-miterlimit="10" width="18.264" height="0.086"/>
			
				<rect x="69.939" y="66.595" transform="matrix(0.7071 0.7071 -0.7071 0.7071 78.3377 -25.5272)" fill="#555656" stroke="#4A494A" stroke-width="0.3" stroke-miterlimit="10" width="0.088" height="30.407"/>
			
				<rect x="51.082" y="67.793" transform="matrix(0.9702 0.2423 -0.2423 0.9702 18.4163 -14.061)" fill="#555656" stroke="#4A494A" stroke-width="0.3" stroke-miterlimit="10" width="30.571" height="0.083"/>
			<polygon fill="#555656" stroke="#4A494A" stroke-width="0.3" stroke-miterlimit="10" points="47.878,80.709 47.794,80.695 
				51.498,64.122 51.58,64.14 			"/>
			<polygon fill="#555656" stroke="#4A494A" stroke-width="0.3" stroke-miterlimit="10" points="58.734,92.085 47.805,80.729 
				47.867,80.676 58.797,92.033 			"/>
			
				<rect x="46.622" y="80.519" transform="matrix(0.9504 0.311 -0.311 0.9504 28.5483 -10.3309)" fill="#555656" stroke="#4A494A" stroke-width="0.3" stroke-miterlimit="10" width="0.085" height="7.645"/>
			<polygon fill="#555656" stroke="#4A494A" stroke-width="0.3" stroke-miterlimit="10" points="47.828,80.742 34.759,77.872 
				34.781,77.795 47.846,80.662 			"/>
			
				<rect x="64.476" y="58.818" transform="matrix(0.2916 0.9565 -0.9565 0.2916 118.5121 -7.793)" fill="#555656" stroke="#4A494A" stroke-width="0.3" stroke-miterlimit="10" width="0.084" height="34.6"/>
			
				<rect x="30.189" y="72.694" transform="matrix(0.6616 0.7498 -0.7498 0.6616 68.3499 -5.9875)" fill="#555656" stroke="#4A494A" stroke-width="0.3" stroke-miterlimit="10" width="21.24" height="0.087"/>
			
				<rect x="33.776" y="64.413" fill="#555656" stroke="#4A494A" stroke-width="0.3" stroke-miterlimit="10" width="17.771" height="0.08"/>
			<polygon fill="#555656" stroke="#4A494A" stroke-width="0.3" stroke-miterlimit="10" points="33.823,64.783 33.741,64.767 
				40.779,37.965 40.862,37.986 			"/>
			<polygon fill="#555656" stroke="#4A494A" stroke-width="0.3" stroke-miterlimit="10" points="33.75,64.803 23.527,53.803 
				23.588,53.749 33.815,64.746 			"/>
			<polygon fill="#555656" stroke="#4A494A" stroke-width="0.3" stroke-miterlimit="10" points="29.704,71.854 29.628,71.814 
				33.746,64.758 33.819,64.794 			"/>
			
				<rect x="29.319" y="34.692" transform="matrix(0.853 0.5219 -0.5219 0.853 23.3519 -13.4369)" fill="#555656" stroke="#4A494A" stroke-width="0.3" stroke-miterlimit="10" width="12.418" height="0.083"/>
			
				<rect x="62.187" y="10.35" transform="matrix(0.8878 0.4602 -0.4602 0.8878 15.245 -26.6219)" fill="#555656" stroke="#4A494A" stroke-width="0.3" stroke-miterlimit="10" width="0.09" height="15.221"/>
			<polygon fill="#555656" stroke="#4A494A" stroke-width="0.3" stroke-miterlimit="10" points="71.345,35.28 71.282,35.222 
				88.4,17.849 88.463,17.906 			"/>
		</g>
		<g>
			
				<ellipse fill="#555656" stroke="#4A494A" stroke-width="0.3" stroke-miterlimit="10" cx="55.096" cy="46.787" rx="0.458" ry="0.444"/>
			<path fill="#555656" stroke="#4A494A" stroke-width="0.3" stroke-miterlimit="10" d="M42.256,37.986
				c0,0.24-0.206,0.441-0.463,0.441c-0.251,0-0.452-0.201-0.452-0.441c0-0.249,0.201-0.447,0.452-0.447
				C42.05,37.539,42.256,37.737,42.256,37.986z"/>
			<path fill="#555656" stroke="#4A494A" stroke-width="0.3" stroke-miterlimit="10" d="M52.986,64.09
				c0,0.244-0.207,0.442-0.459,0.442c-0.253,0-0.457-0.198-0.457-0.442c0-0.248,0.204-0.446,0.457-0.446
				C52.779,63.644,52.986,63.842,52.986,64.09z"/>
			
				<ellipse fill="#555656" stroke="#4A494A" stroke-width="0.3" stroke-miterlimit="10" cx="34.748" cy="64.803" rx="0.458" ry="0.445"/>
			
				<ellipse fill="#555656" stroke="#4A494A" stroke-width="0.3" stroke-miterlimit="10" cx="48.845" cy="80.676" rx="0.458" ry="0.443"/>
			<path fill="#555656" stroke="#4A494A" stroke-width="0.3" stroke-miterlimit="10" d="M82.648,71.494
				c0,0.246-0.205,0.445-0.456,0.445s-0.459-0.199-0.459-0.445c0-0.242,0.208-0.443,0.459-0.443S82.648,71.252,82.648,71.494z"/>
			<path fill="#555656" stroke="#4A494A" stroke-width="0.3" stroke-miterlimit="10" d="M80.874,72.125
				c0,0.246-0.205,0.445-0.456,0.445s-0.459-0.199-0.459-0.445c0-0.242,0.208-0.443,0.459-0.443S80.874,71.883,80.874,72.125z"/>
			<path fill="#555656" stroke="#4A494A" stroke-width="0.3" stroke-miterlimit="10" d="M81.799,57.539
				c0,0.242-0.201,0.443-0.456,0.443c-0.251,0-0.456-0.201-0.456-0.443c0-0.247,0.205-0.447,0.456-0.447
				C81.598,57.092,81.799,57.292,81.799,57.539z"/>
			<path fill="#555656" stroke="#4A494A" stroke-width="0.3" stroke-miterlimit="10" d="M72.801,35.254
				c0,0.246-0.207,0.447-0.458,0.447c-0.256,0-0.457-0.201-0.457-0.447c0-0.243,0.201-0.442,0.457-0.442
				C72.595,34.812,72.801,35.011,72.801,35.254z"/>
			<path fill="#555656" stroke="#4A494A" stroke-width="0.3" stroke-miterlimit="10" d="M93.487,39.576
				c0,0.242-0.207,0.443-0.458,0.443c-0.255,0-0.459-0.201-0.459-0.443c0-0.249,0.204-0.446,0.459-0.446
				C93.28,39.13,93.487,39.327,93.487,39.576z"/>
			<path fill="#555656" stroke="#4A494A" stroke-width="0.3" stroke-miterlimit="10" d="M60.209,24.668
				c0,0.242-0.208,0.444-0.461,0.444c-0.25,0-0.454-0.202-0.454-0.444c0-0.247,0.204-0.444,0.454-0.444
				C60.001,24.224,60.209,24.421,60.209,24.668z"/>
		</g>
	</g>
	<g>
		<path fill="#686868" stroke="#4A494A" stroke-width="1.5" stroke-miterlimit="10" d="M108.885,53.635
			c0,0.307-0.258,0.548-0.57,0.548c-0.314,0-0.564-0.241-0.564-0.548c0-0.303,0.25-0.547,0.564-0.547
			C108.627,53.088,108.885,53.332,108.885,53.635z"/>
		<path fill="#686868" stroke="#4A494A" stroke-width="1.5" stroke-miterlimit="10" d="M97.947,53.279
			c0,0.371-0.314,0.68-0.693,0.68c-0.383,0-0.695-0.309-0.695-0.68c0-0.373,0.313-0.672,0.695-0.672
			C97.633,52.607,97.947,52.906,97.947,53.279z"/>
		<path fill="#686868" stroke="#4A494A" stroke-width="1.5" stroke-miterlimit="10" d="M78.722,80.926
			c0,0.376-0.314,0.68-0.695,0.68c-0.387,0-0.697-0.304-0.697-0.68c0-0.371,0.31-0.67,0.697-0.67
			C78.408,80.256,78.722,80.555,78.722,80.926z"/>
		
			<ellipse fill="#999999" stroke="#A5A4A4" stroke-width="1.5" stroke-miterlimit="10" cx="97.865" cy="76.096" rx="0.693" ry="0.674"/>
		<path fill="#686868" stroke="#4A494A" stroke-width="1.5" stroke-miterlimit="10" d="M82.495,90.137c0,0.271-0.23,0.49-0.505,0.49
			c-0.284,0-0.51-0.219-0.51-0.49s0.226-0.492,0.51-0.492C82.265,89.645,82.495,89.865,82.495,90.137z"/>
		
			<ellipse fill="#686868" stroke="#4A494A" stroke-width="1.5" stroke-miterlimit="10" cx="59.113" cy="43.931" rx="0.386" ry="0.375"/>
		
			<ellipse fill="#686868" stroke="#4A494A" stroke-width="1.5" stroke-miterlimit="10" cx="58.419" cy="91.141" rx="0.694" ry="0.676"/>
		<path fill="#686868" stroke="#4A494A" stroke-width="1.5" stroke-miterlimit="10" d="M44.553,88.094
			c0,0.231-0.196,0.426-0.442,0.426c-0.241,0-0.44-0.194-0.44-0.426c0-0.238,0.199-0.43,0.44-0.43
			C44.357,87.664,44.553,87.855,44.553,88.094z"/>
		<path fill="#686868" stroke="#4A494A" stroke-width="1.5" stroke-miterlimit="10" d="M52.838,76.082
			c0,0.373-0.313,0.676-0.697,0.676s-0.69-0.303-0.69-0.676s0.306-0.672,0.69-0.672S52.838,75.709,52.838,76.082z"/>
		<path fill="#999999" stroke="#A5A4A4" stroke-width="1.5" stroke-miterlimit="10" d="M35.11,78.008
			c0,0.373-0.311,0.672-0.695,0.672s-0.695-0.299-0.695-0.672c0-0.374,0.311-0.678,0.695-0.678S35.11,77.634,35.11,78.008z"/>
		
			<ellipse fill="#686868" stroke="#4A494A" stroke-width="1.5" stroke-miterlimit="10" cx="29.549" cy="71.028" rx="0.422" ry="0.408"/>
		
			<ellipse fill="#999999" stroke="#A5A4A4" stroke-width="1.5" stroke-miterlimit="10" cx="66.32" cy="52.891" rx="0.696" ry="0.672"/>
		
			<ellipse fill="#686868" stroke="#4A494A" stroke-width="1.5" stroke-miterlimit="10" cx="23.367" cy="52.83" rx="0.416" ry="0.402"/>
		
			<ellipse fill="#686868" stroke="#4A494A" stroke-width="1.5" stroke-miterlimit="10" cx="30.939" cy="31.979" rx="0.695" ry="0.675"/>
		
			<ellipse fill="#999999" stroke="#A5A4A4" stroke-width="1.5" stroke-miterlimit="10" cx="53.065" cy="26.006" rx="0.694" ry="0.677"/>
		
			<ellipse fill="#999999" stroke="#A5A4A4" stroke-width="1.5" stroke-miterlimit="10" cx="46.898" cy="13.941" rx="0.696" ry="0.675"/>
		
			<ellipse fill="#686868" stroke="#4A494A" stroke-width="1.5" stroke-miterlimit="10" cx="65.714" cy="10.264" rx="0.508" ry="0.493"/>
		
			<ellipse fill="#686868" stroke="#4A494A" stroke-width="1.5" stroke-miterlimit="10" cx="74.312" cy="12.063" rx="0.695" ry="0.675"/>
		
			<ellipse fill="#686868" stroke="#4A494A" stroke-width="1.5" stroke-miterlimit="10" cx="81.376" cy="28.943" rx="0.695" ry="0.674"/>
		
			<ellipse fill="#686868" stroke="#4A494A" stroke-width="1.5" stroke-miterlimit="10" cx="88.054" cy="16.807" rx="0.594" ry="0.576"/>
		<path fill="#999999" stroke="#A5A4A4" stroke-width="1.5" stroke-miterlimit="10" d="M95.901,29.934
			c0,0.373-0.314,0.674-0.697,0.674c-0.38,0-0.693-0.301-0.693-0.674c0-0.374,0.313-0.675,0.693-0.675
			C95.587,29.259,95.901,29.561,95.901,29.934z"/>
		
			<ellipse fill="#686868" stroke="#4A494A" stroke-width="1.5" stroke-miterlimit="10" cx="99.896" cy="28.27" rx="0.491" ry="0.477"/>
		<path fill="#686868" stroke="#4A494A" stroke-width="1.5" stroke-miterlimit="10" d="M104.289,33.998
			c0,0.374-0.309,0.675-0.695,0.675c-0.385,0-0.691-0.301-0.691-0.675c0-0.374,0.307-0.674,0.691-0.674
			C103.98,33.324,104.289,33.624,104.289,33.998z"/>
		<path fill="#686868" stroke="#4A494A" stroke-width="1.5" stroke-miterlimit="10" d="M72.276,79.934
			c0,0.252-0.211,0.46-0.475,0.46c-0.263,0-0.475-0.208-0.475-0.46c0-0.259,0.212-0.467,0.475-0.467
			C72.064,79.467,72.276,79.675,72.276,79.934z"/>
		<path fill="#686868" stroke="#4A494A" stroke-width="1.5" stroke-miterlimit="10" d="M47.921,54.959
			c0,0.254-0.211,0.461-0.475,0.461c-0.262,0-0.475-0.207-0.475-0.461c0-0.258,0.212-0.465,0.475-0.465
			C47.709,54.494,47.921,54.701,47.921,54.959z"/>
		<path fill="#686868" stroke="#4A494A" stroke-width="1.5" stroke-miterlimit="10" d="M28.026,35.249
			c0,0.222-0.189,0.406-0.423,0.406c-0.232,0-0.42-0.184-0.42-0.406c0-0.228,0.188-0.41,0.42-0.41
			C27.837,34.839,28.026,35.021,28.026,35.249z"/>
	</g>
</g>
<g id="you">
	<g>
		<path fill="#353535" stroke="#343434" stroke-miterlimit="10" d="M101.623,68.365v-0.85c-0.813,1.005-1.674,1.847-2.575,2.527
			c-0.904,0.68-1.886,1.187-2.954,1.517c-1.068,0.331-2.288,0.499-3.655,0.499c-1.65,0-3.133-0.331-4.443-0.995
			c-1.309-0.667-2.324-1.581-3.04-2.751c-0.852-1.406-1.277-3.43-1.277-6.07V49.096c0-1.326,0.311-2.319,0.923-2.973
			c0.619-0.659,1.437-0.984,2.458-0.984c1.032,0,1.863,0.332,2.501,0.993c0.633,0.666,0.948,1.654,0.948,2.964v10.621
			c0,1.537,0.135,2.826,0.403,3.873c0.265,1.047,0.746,1.863,1.437,2.458c0.693,0.589,1.633,0.884,2.817,0.884
			c1.154,0,2.238-0.332,3.255-0.996c1.016-0.662,1.757-1.531,2.226-2.597c0.383-0.944,0.579-3.001,0.579-6.175v-8.068
			c0-1.31,0.316-2.298,0.951-2.964c0.633-0.661,1.459-0.993,2.479-0.993c1.018,0,1.832,0.325,2.449,0.984
			c0.617,0.653,0.928,1.646,0.928,2.973v19.216c0,1.266-0.295,2.214-0.887,2.845c-0.596,0.638-1.359,0.948-2.291,0.948
			c-0.938,0-1.705-0.324-2.318-0.98C101.93,70.467,101.623,69.547,101.623,68.365z"/>
	</g>
	<path fill="#353535" stroke="#343434" stroke-miterlimit="10" d="M77.973,58.121c0,2.027-0.335,3.899-1.007,5.605
		c-0.673,1.715-1.647,3.186-2.922,4.411c-1.273,1.233-2.797,2.173-4.564,2.827c-1.773,0.66-3.763,0.986-5.978,0.986
		c-2.192,0-4.167-0.332-5.918-0.996c-1.751-0.666-3.271-1.616-4.554-2.857c-1.284-1.232-2.258-2.694-2.918-4.377
		c-0.665-1.692-0.997-3.555-0.997-5.6c0-2.059,0.336-3.945,1.011-5.656c0.67-1.709,1.635-3.172,2.891-4.382
		c1.259-1.217,2.779-2.151,4.567-2.806c1.786-0.657,3.76-0.984,5.918-0.984c2.198,0,4.186,0.332,5.978,0.994
		c1.781,0.668,3.316,1.616,4.591,2.844c1.273,1.229,2.241,2.689,2.909,4.385C77.639,54.21,77.973,56.076,77.973,58.121z
		 M70.697,58.121c0-2.773-0.648-4.932-1.949-6.479c-1.302-1.543-3.048-2.316-5.247-2.316c-1.411,0-2.662,0.344-3.742,1.034
		c-1.079,0.69-1.911,1.704-2.496,3.052c-0.582,1.346-0.874,2.916-0.874,4.709c0,1.779,0.287,3.331,0.861,4.662
		c0.576,1.329,1.398,2.342,2.469,3.052c1.072,0.706,2.331,1.059,3.781,1.059c2.198,0,3.944-0.776,5.247-2.329
		C70.049,63.011,70.697,60.865,70.697,58.121z"/>
	<path fill="#353535" stroke="#343434" stroke-miterlimit="10" d="M24.692,67.023l-3.883,0.451l-0.575-3.194
		c-2.344,1.102-4.645,2.304-7.063,3.227l0.607,0.533l8.379,8.244c-0.096-0.567-0.18-1.391-0.202-1.529
		c-0.031-0.187-0.206-1.996-0.321-2.074c1.03,0.682,1.95,0.494,2.979,0.335c0.815-0.125,1.621-0.223,2.402-0.475
		C25.03,70.1,24.692,67.023,24.692,67.023z"/>
	<path fill="#353535" stroke="#343434" stroke-miterlimit="10" d="M52.359,29.688c-0.314-0.563-0.765-1.023-1.362-1.369
		c-0.592-0.348-1.222-0.53-1.877-0.549c-0.915-0.027-1.624,0.103-2.132,0.386c-0.506,0.285-0.997,0.847-1.465,1.693
		c-0.471,0.843-1.003,2.014-1.601,3.511l-7.516,18.475l-6.771-20.295c-0.447-1.411-0.979-2.496-1.591-3.263
		c-0.615-0.767-1.548-1.166-2.801-1.202c-0.723-0.021-1.421,0.137-2.099,0.479c-0.68,0.338-1.22,0.803-1.618,1.388
		c-0.4,0.586-0.61,1.227-0.63,1.925c-0.019,0.657,0.278,1.723,0.896,3.197l9.956,25.586l-0.848,1.801
		c-0.634,1.317-1.187,2.314-1.666,2.986c-0.473,0.679-1.003,1.142-1.584,1.403c-0.272,0.124-0.626,0.188-1,0.238
		c-0.139,0.119-0.309,0.206-0.479,0.293c0.014,0.036,0.018,0.075,0.034,0.108c0.108,0.261,0.16,0.522,0.193,0.785
		c0.578,1.561,1.545,2.979,2.545,4.385c0.112,0.116,0.239,0.219,0.336,0.346c0.238,0.034,0.46,0.086,0.659,0.163
		c0.996-0.145,1.918-0.353,2.661-0.686c1.56-0.699,2.829-1.736,3.801-3.104c0.974-1.367,1.987-3.261,3.032-5.681l12.145-27.519
		c0.295-0.71,0.551-1.411,0.762-2.101c0.209-0.695,0.364-1.229,0.461-1.603C52.819,30.849,52.673,30.255,52.359,29.688z"/>
</g>
<path id="o" fill="#174898" stroke="#174898" stroke-miterlimit="10" d="M186.231,60.121c0,2.027-0.336,3.899-1.01,5.605
	c-0.672,1.715-1.646,3.186-2.918,4.411c-1.275,1.233-2.799,2.173-4.566,2.827c-1.771,0.66-3.762,0.986-5.977,0.986
	c-2.195,0-4.168-0.332-5.92-0.996c-1.752-0.666-3.268-1.616-4.555-2.857c-1.283-1.232-2.256-2.694-2.918-4.377
	c-0.664-1.692-0.996-3.555-0.996-5.6c0-2.059,0.338-3.945,1.01-5.656c0.674-1.709,1.635-3.172,2.893-4.382
	c1.26-1.217,2.777-2.151,4.566-2.806c1.789-0.657,3.76-0.984,5.92-0.984c2.197,0,4.188,0.332,5.977,0.994
	c1.783,0.668,3.316,1.616,4.588,2.844c1.277,1.229,2.244,2.688,2.914,4.385C185.896,56.21,186.231,58.076,186.231,60.121z
	 M178.958,60.121c0-2.773-0.652-4.932-1.951-6.479c-1.305-1.543-3.049-2.316-5.246-2.316c-1.412,0-2.664,0.344-3.744,1.034
	s-1.91,1.704-2.496,3.052c-0.582,1.346-0.869,2.916-0.869,4.709c0,1.779,0.281,3.331,0.857,4.662
	c0.578,1.329,1.396,2.342,2.471,3.052c1.07,0.706,2.33,1.059,3.781,1.059c2.197,0,3.941-0.776,5.246-2.329
	C178.306,65.011,178.958,62.865,178.958,60.121z"/>
<g id="g">
	<path fill="#174898" stroke="#184998" stroke-width="0.8" stroke-miterlimit="10" d="M141.975,41.194c0,0,3.392,5.103,8.276,0"/>
	<path fill="#174898" stroke="#184998" stroke-miterlimit="10" d="M146.068,69.805c0,0,2.134,1.956,4.961,0"/>
	<rect x="146.339" y="53.309" fill="#174898" stroke="#184998" stroke-miterlimit="10" width="4.42" height="16.496"/>
	<g>
		<path fill="#174898" stroke="#174898" stroke-width="3.7" stroke-miterlimit="10" d="M142.726,39.104
			c0.057,0.117,0.102,0.24,0.152,0.361h5.082c-0.23-0.792-0.5-1.561-0.867-2.273c-0.854-1.659-1.971-3.078-3.348-4.257
			c-1.379-1.179-2.984-2.086-4.816-2.726c-1.832-0.638-3.82-0.956-5.961-0.956c-2.541,0-4.865,0.508-6.979,1.529
			c-2.113,1.019-3.93,2.476-5.441,4.367c-1.516,1.893-2.693,4.18-3.523,6.855c-0.838,2.679-1.256,5.675-1.256,8.992
			c0,3.273,0.418,6.251,1.256,8.928c0.83,2.679,2.012,4.974,3.535,6.889c1.525,1.912,3.352,3.39,5.484,4.433
			c1.305,0.636,2.703,1.066,4.186,1.307v-4.887c-0.76-0.192-1.492-0.451-2.186-0.805c-1.523-0.776-2.83-1.892-3.92-3.348
			c-1.088-1.456-1.932-3.237-2.529-5.342c-0.6-2.104-0.896-4.496-0.896-7.175c0-2.699,0.297-5.102,0.896-7.206
			c0.598-2.103,1.441-3.878,2.529-5.323c1.09-1.445,2.389-2.54,3.908-3.284c1.514-0.745,3.188-1.115,5.02-1.115
			c1.541,0,2.947,0.197,4.217,0.588c1.27,0.392,2.363,0.963,3.279,1.705C141.466,37.106,142.19,38.02,142.726,39.104z"/>
		
			<rect x="137.495" y="53.309" fill="#174898" stroke="#174898" stroke-width="2" stroke-miterlimit="10" width="12.756" height="4.672"/>
		<path fill="#174898" stroke="#174898" stroke-width="1.3" stroke-miterlimit="10" d="M136.871,52.948c0,0-3.072,1.709,0,5.727"/>
		<path fill="#174898" stroke="#174898" stroke-width="3.7" stroke-miterlimit="10" d="M147.794,57.672h-4.33
			c-0.688,1.672-1.459,3.151-2.316,4.426c-1.191,1.766-2.49,3.14-3.896,4.119c-1.406,0.979-2.883,1.558-4.438,1.729
			c-1.551,0.176-3.121-0.055-4.709-0.689c-1.338-0.533-2.494-1.205-3.469-2.011c-0.977-0.808-1.744-1.722-2.299-2.734
			c-0.559-1.015-0.895-2.124-1.012-3.325c-0.014-0.13-0.012-0.262-0.018-0.393l-4.408-1.758c-0.053,0.824-0.063,1.637,0.025,2.432
			c0.211,1.852,0.725,3.57,1.543,5.154c0.818,1.582,1.922,2.99,3.305,4.223c1.385,1.232,3.008,2.219,4.863,2.959
			c2.205,0.879,4.383,1.205,6.541,0.979s4.199-0.963,6.115-2.216c1.92-1.251,3.672-2.99,5.248-5.212
			c1.254-1.763,2.328-3.823,3.254-6.146V57.672z"/>
	</g>
</g>
</svg>
